<svg id="Layer_1" data-name="Layer 1" xmlns="http://www.w3.org/2000/svg" viewBox="0 0 498.38 615.94"><defs><style>.cls-1{fill:#009cb3;}</style></defs><path class="cls-1" d="M183.2,366.81s-51.57-54.07-8.51-114.65c0,0,33.54-57.57,106.63-31l12-9c-9.06-5-28.77-14-54.24-12.14-47,3.46-73.37,41.2-77,46.54a102.51,102.51,0,0,0-16.8,44.85c-5.53,47,25,81.16,30.36,87Z"/><path class="cls-1" d="M212,385.49A85.61,85.61,0,0,0,254.25,394c41.95-2.67,66-37,69.39-42,0,0,40.06-50.56-9-111.14l6-13s63.08,55.57,15,133.18A102.86,102.86,0,0,1,295.8,395.7C251.71,417,208,397.11,201.48,394Z"/><path class="cls-1" d="M198.44,307.48l121.5-99.27-49.57,84.36h37.55L166,416.22l69.84-104-42.68-.36Z"/></svg>