<?xml version="1.0" encoding="utf-8"?>
<!-- Generator: Adobe Illustrator 24.2.3, SVG Export Plug-In . SVG Version: 6.00 Build 0)  -->
<svg version="1.1" id="Layer_1" xmlns="http://www.w3.org/2000/svg" xmlns:xlink="http://www.w3.org/1999/xlink" x="0px" y="0px"
	 viewBox="0 0 500 400" style="enable-background:new 0 0 500 400;" xml:space="preserve">
<style type="text/css">
	.st0{fill:none;stroke:#FFFFFF;stroke-width:2.5;stroke-miterlimit:10;}
	.st1{fill:#FFFFFF;stroke:#FFFFFF;stroke-width:2.5;stroke-miterlimit:10;}
</style>
<g id="Layer_2_1_">
	<path class="st0" d="M49.2,173.7c0,0,0.7-17.4,5.2-22.2c0,0,8.9-8.3,14.9-8.6c0,0-1.8,2.6-1.8,7.3c0,0,8.1-28.2,21-30.5
		c0,0,8.9-1.3,14.3,9.5c0,0,7.3,38.8-21.2,50.4l10-4.8c0,0,0.2,6.8-2.6,11.1c0,0,4.3,0.8,6.5,6"/>
	<path class="st0" d="M73.2,173.7c0,0,11.6-6.6,14.4-11.3c0,0,6.1-22.4,8-36.3"/>
	<path class="st1" d="M80,190.5c2.6,0.5,5.2-0.1,7.4-1.5"/>
	<path class="st1" d="M80,195.2c3.2,0.7,6.6,0.3,9.5-1.3"/>
	<path class="st0" d="M46.4,185.8c0,0,11.9-19.1,23.8,0v6.3c-1.1,5.2-5.6,9.1-10.9,9.6c-5.8,0.5-11.5-3.6-13-9.6L46.4,185.8z"/>
	<path class="st0" d="M44.4,198.2c0.2,0.5,0.4,1,0.7,1.5c2.6,4.3,13.6,15.1,54.2-1.5l2.5,20.9c0,0-29.3,23.2-55.5,6.5l-1.8-26.8"/>
	<path class="st0" d="M33.7,284.5l4.5-12.2l-4.5-18.2l12.7-26.6c0,0,23.2,18.6,55.5-6.2l1.7,7.5c0,0-25,20.6-59.1,8.5"/>
	<path class="st0" d="M47.4,248.1l-1.5,9.7"/>
	<path class="st0" d="M52,248.1l-0.9,9.6"/>
	<polyline class="st0" points="81.2,243 84.1,255.3 101,254.1 110.1,263.8 	"/>
	<path class="st0" d="M9.4,321.8c0,0,6.8,28.1,25,17.5c0,0-28-16.2-9.3-44c0,0-7.6,31,13.4,42.4c0,0,28.8-13.9,37.3-22.5
		c0,0,17.8-13.9,34.3-36.4c0,0-1.4-28.9-31.6-16.2c0,0-29.1,23.1-53,31.8"/>
	<path class="st0" d="M25.6,288.8c0,0-20.6,8.6-16.2,33"/>
	<path class="st0" d="M62.1,282l25.7-17.5c0,0,11.8,0.9,19.4,18.2"/>
	<path class="st0" d="M57.5,277.7c0,0-2.2,31.5,21.4,35"/>
	<path class="st0" d="M50,282.4c0,0-5.2,29.7,22.8,35.5"/>
	<path class="st0" d="M61.4,299.4l12.7-9.8h6.1v6.1L65.8,306"/>
	<path class="st0" d="M23.9,303.3l10.3-5.9l4.8,3.2l11.1-6.4"/>
	<polyline class="st0" points="23.7,307.3 34.1,302 39.7,305.5 51,298.4 	"/>
	<polyline class="st0" points="81.2,319.2 90.1,329.8 107.2,333.8 	"/>
	<path class="st0" d="M32.4,340.4c0,0,0.1,0.5,7.7-3.4"/>
	<line class="st0" x1="77.7" y1="243.9" x2="77.5" y2="263.4"/>
	<path class="st0" d="M51.4,185.4c0,0,6.7-8.7,15.1,0v7.6c0,0-6.9,10.3-15.1-0.4V185.4z"/>
	<path class="st0" d="M54,183.1l2.4,6.7c0.7,1.8,2.2,2.6,2.9,2.4c0.7-0.3,1.4-2,0.6-3.9l-2.6-6.7"/>
	<path class="st0" d="M50.1,336.2l10.3,22.9l33.8,20.6l2.6,1.6l13.2,8l57.2-31.5l33.5-41.4c0,0,4.1-28.8-33.2-20.1
		c0,0-24.5,15.1-31.2,27.3l-18.5,10.1l-2.8,1.5c-14.4,10-22.4,27-20.9,44.5"/>
	<path class="st0" d="M103.6,385.3c0,0-5-34.4,11.6-50.1c0,0-12.8,17.9-2.9,52.9"/>
	<path class="st0" d="M124.3,386c0,0,13.4,7.2,38.8,4.5c0,0,19.9-9.7,42.5-44.8c0,0,11.5-35.8,14.2-50.5c0,0-4-22.6-26.9-4"/>
	<path class="st0" d="M173.5,389.3c0,0,2,1.4,31.8,1.8l28.1-32.7l-2-55c0,0-6.6-3.3-15.5,7.6"/>
	<path class="st0" d="M117,251.7c2.6-1.9,7.2,0,10.8,2c1.6,0.9,3.2,1.9,4.6,3c9.8,7.2,14,17.9,15.9,25.7c0.3,1.4,0.6,2.7,0.8,3.8
		c-0.1,1-0.6,3.4-2.4,4.8c-0.8,0.6-2.6,1.5-7.3,0.2c-10.5-2.9-16.9-11.8-18.6-14.4c-1.1-1.6-2-3.3-2.8-5
		C115.1,265.3,113,254.5,117,251.7z"/>
	<line class="st0" x1="147.7" y1="280.2" x2="165.2" y2="297.8"/>
	<polyline class="st0" points="103.6,228.8 104.6,234.5 118.5,250.9 	"/>
	<path class="st0" d="M106.3,283.8l9.2,5.9l0,0l8.7-8.5"/>
	<polyline class="st0" points="130.6,286.9 122,298.8 127.8,311.4 125.5,317.9 131.2,326.4 	"/>
	<polyline class="st0" points="136.4,290.1 132,300.1 142.4,315.8 	"/>
	<path class="st0" d="M152.6,323.1l20.9-20.1c0,0,14.7-0.1,17.9,1.9l3.2,10.9"/>
	<path class="st0" d="M137.2,322.2c0,0-2.8,9.3,26.1,33.1"/>
	<path class="st0" d="M142.4,321c0,0,4,17.4,25.1,30.8"/>
	<polyline class="st0" points="144.8,337.4 129.8,345.9 123,344 110.1,351.9 123,340.4 127.8,342 141.9,333.8 	"/>
	<polyline class="st0" points="156.4,343.2 157.9,338.8 170.3,325.3 176,325.3 176,330 164.3,343.2 157.7,344.4 	"/>
	<path class="st0" d="M150.2,367.2c0,0,7.9,15.2,25.8,13.9"/>
	<path class="st0" d="M146.7,372.6c0,0,7.7,13.2,25.4,11.9"/>
	<line class="st0" x1="213.8" y1="361.7" x2="219.8" y2="355.4"/>
	<line class="st0" x1="216.8" y1="364.1" x2="221.8" y2="358.5"/>
	<path class="st0" d="M187.9,351.9l6.2-6.5"/>
	<line class="st0" x1="191" y1="354.2" x2="197.1" y2="347"/>
	<path class="st0" d="M212.3,345.5c0,0,17.9-0.7,21.2,6.5"/>
	<path class="st0" d="M210.1,348.7c0,0,18.6-1.5,23.4,9.7"/>
	<path class="st0" d="M183.6,337.4c0,0,15.5,2,19.3,12.3"/>
	<path class="st0" d="M186.6,333.8c0,0,14.6-0.7,19.4,10.6"/>
	<path class="st0" d="M200.8,337.4c9.7-20.9,2.1-19.6,2.1-19.6c-5.7,1.3-8.3,15.9-8.3,15.9"/>
	<path class="st0" d="M221.8,346l1.1-14c0,0,2.9-4.8,6.4,0l-1,15.6"/>
	<path class="st0" d="M126.6,253.7c-14.8,0.7-2.4,19.9-2.4,19.9s12,19.1,24.4,10.3"/>
	<path class="st0" d="M128.5,273.6c0,0-12.7-26.7,6.9-5C135.4,268.6,151.1,292.5,128.5,273.6z"/>
	<ellipse class="st0" cx="251.3" cy="141.2" rx="121.8" ry="119.4"/>
	<circle class="st0" cx="251.5" cy="141.6" r="127.7"/>
	<circle class="st0" cx="250.9" cy="141.3" r="134.1"/>
	<polygon class="st0" points="209.3,49.4 211,45.2 213.1,43.2 214.8,43.2 214.8,41 219.8,41 219.8,38.7 220.7,36.6 225,36.6 
		225.4,37.6 224.7,38.9 223.8,40.9 225,40.9 226,38.8 226,38.1 228.4,38 228.4,40.9 229.1,40.9 229.1,44.7 230.7,44.6 230.7,48.8 
		229,48.7 229.1,52.9 227.7,52.9 227.8,58.6 224.9,58.6 224.8,57.1 223.7,57.1 223.6,55.9 217,55.8 216.8,54.5 215.6,54.5 
		215.6,50.4 215.6,48.9 214.1,48.9 212.8,47.6 211.8,49 	"/>
	<path class="st0" d="M154.4,68.9l0.7,0.9h4.6v1.5h5.2c-0.1,0.5-0.1,1,0,1.4c0.1,0.1,4,0,4,0v1.4h8.5v-1.8h2.6v-1.1h3.9v1.4l4.2-0.2
		v1.7h4.3l1.3,1.2h3.6v1.3h5.9v-1l2.6-0.1v-1.9l1.9,0.1v4.5H206l-0.1,1.3h-8.3l0.1,1.3h-5.3v1.5h-1.5v1.9h1.3v2.4h1.6l-0.1,1.3h3.4
		l-0.1,1.1h2l1.3,1.6h1.9l1.2-1.3l0.1-4.3h1.4l-0.1-1.3h1.4l1.5-1.3l1.2-0.1l1.1-1.4l2.9-0.1V82l2.7-0.1v1.9l2.9-0.2v1.2h2.5v4.1
		l3-0.1c0.1,0.5,0.1,1,0,1.5c0.5,0.1,0.9,0.1,1.3,0v2.9L224,95l-0.1,2.4h-4.9l-0.1,1.4h-7.2c0,0-1.4,1.7-1.4,1.5s0,2.6,0,2.6
		l-1.8,1.3h-2.4l-1.4,1.4l-5.7,0.2l-1.1,1l-0.2,1.7h-1.1l-0.1,1.3h-1.3l-0.2,1.4h-1.5l-0.1,1.2h-1.4l-0.1,1.1h-1v1.3h-1.3v1.9h-1.5
		l-1.4,2.1l-0.2,1.5h2l1.1,1.6H188l-0.1,1.4h-1.3v1.3l-1.3,1.4H184l-0.1-3.2l-1.2-1l-0.2-1.4l-1.5-1.3l-9.1-0.1l-0.1,1.7l-4.5-0.2
		l-0.1,1.5l-1.5-0.2c0,0,0.1,6.6,0.1,6.8c0.1,0.2,1.7,0,1.7,0l-0.1,1.5h9.4l0.1,2.6h-2.6l-1.3,1.3l-0.2,1.5c0,0,4,0.1,4,0
		c0.1,0.5,0.1,1,0.1,1.4h1.7l1,1v3.3h8.4l1.5,1.3h2.8l0.1,1.2l10.6,0.2l0.1,1.3h2.5v1.4c0,0,2.9-0.1,3,0c0.1,0.1-0.1,1.1-0.1,1.1
		h5.1l-0.1,1.5h4.6l-0.1,1.3h2.8l2.8,3.1l0.1,1h7.9l1.1,1.3h0.9l1,1.6h1.3l0.2,3.8h1.1v1.6h1.5v1.1h1.4v4.7l-1.6,0.7l0.1,1.9h-1.7
		l-0.6,1h-2.1l-1.1,1.3l0.1,1.9h1.8v5.3l-1.7,0.9l-0.1,2.1l-1,0.8l-2,0.1v1.5h-2.6l0.1,1.1h-2.7l-0.1,1.6h-1.4l-1.2,1.3l-0.1,1.7
		l-1.2,0.8l-0.1,2.9h-1.4l-0.1,2.6h-4.2l0.1,2.9h-1.4L214,203h-1.4l-1.2,1.1l-0.1,1.4H210l-0.1,1.6l-1.2,1l-0.1,1.9
		c0,0-1.4,1-1.4,0.9v2.9h1.3v1.3h1.8l0.1,1.2h1.2l-0.1,1.3h1.2c0,0,0.1,1.5,0.1,1.5h1.3l0.1,1.4h1.4l-0.1,1.3h1.4l0.1,1.8h-7.3
		l-1.2-1.5h-2.7l-0.1-1.3l-1.4-1.2v-1.7h-1.3l-0.1-1.4h-1.3l-0.1-1.4h-1.3l0.1-2.6l-1.4-0.1v-10.7l-1.5-0.1l0.1-4.1h-1.4l0.1-4
		l1.5-0.1l0.1-11.2l-1.5-1l-0.1-4.5l-1.4-1.1h-5.2l-1.3-1.3l-0.1-1.4h-1.5v-1.4l-1.3-1.2l-0.1-1.9l-1.1-0.9l-0.2-1.7l-1.2-0.1
		l-0.2-5.2h-1.4l-0.1-1.1h-1.3v-1.7l1.7-1.1l-0.1-1.7l1.5-1.2l1.5-1.4l1.3-1.2l-0.1-1.8l-1.7-1.2l-1.4-1.2l-7.1,0.2l-1.3-1.6v-1.4
		l-1.4,0.1v-1.4l-5.7,0.1v-1.3l-1.1-0.1l-0.1-1.6l-1.1-1.2l-2.9-2.7h-1.5l-1.2-1.4l-3.1,0.1l-1.1-1.2l-0.1-1.6l1.9-1l-0.2-1.5
		l-4.1-4v-1.7c0,0-1.5-0.6-1.5-0.7s0-2.2,0-2.2l-1.3-1h-1.7l-1,1.4l1.2,1.7l1.4,1.1l0.1,2.6l1.4,1.4l0.2,2.8l-1,0.2v1.4l-1.3-0.1
		l-0.1-1.4l-1.8-1.2v-4.6l-1.6-0.9v-2.2c-0.5-0.3-1-0.6-1.4-1c-0.1-0.1,0-1.5,0-1.5l-2.5-2.3v-7.1c0,0,1.2-0.9,1.3-1.4
		c0.1-0.5,0.1-1.1,0.1-1.6l1.7-1.1l-0.1-1.4l1.1-0.1c0,0,0.1-2.6,0.1-2.5s1.3-0.2,1.3-0.2l-0.1-2.4l1.4-1.1l0.1-1.7
		c0,0-1.5-1.3-1.4-1.3c0.1,0.1,0-2.9,0-2.9l-1.5-1.3l1.3-1.4l0.1-1.4l-1.3-0.9l-2-1.2"/>
	<path class="st0" d="M237.2,37.1l1.8-1.3c0.4,0,0.9-0.1,1.2-0.2c0.2-0.2,0-1.3,0-1.3h4.4c0,0,1.1,0.2,1.1,0v-1.3h1.1l1.7-1.8h3.8
		v1.6l5.6,0.1l1.3,1.3l1.5,1.3l4.6,0.1l1.5,1.6h2.6l0.9,1.1h0.9v2.2l-0.9,0.7l-1.3,1.5l-1.1-1.6l-0.2-1.9l-2-0.6l-3.2-0.4l-1.9,1.7
		l-1.9-0.2l-0.4-1.7l-1.8-1.1l-1.3-0.3l-0.3-1.1l-0.8,1.1l-1.6,0.3l-0.4-1.3l-2.6-0.3l-1,1.2l-1.4-0.9l-2.2-0.7l-1.5,0.7
		c0,0-0.1,0.3-1.3,0.6l-1.3,0.2l-0.3,1.5l-1.1,1l-1-0.3L237.2,37.1z"/>
	<path class="st0" d="M303.9,33.4l-0.3,2.1h-1.7v1.7l-2.8,2.2v2l-1.2,0.8v1.9l-1.5,0.7v1.6h-1.5v4.1l-0.8,1.3h-0.9v-1.3l-1-1.4
		l-1.4-0.1v7.1l-1.3,1l4.4,4.4v5.3l1.3,1.7v3l1.4,1.2l-0.2,5.6l-1.3,0.9v1.9l-1.5-0.1l0.1,1.2l-2.6,2.8l-2.7,0.2l-8.1,7.7h-2.9
		l-1.2,1.4h-2.9v1.4h-8.5v-1.4l-5-0.1l-1.6,1.4l-1.3,1.1h-1.3v1.5h-1.4v1.5h-1.3v1.3h-2.7v1.4H247l-1.5,1.3h-2.7v1.4h-1.4v1.5h-1.3
		v2.8h-1.4v1.4h-4v2.8h-1.4l0.1,1.3l-1.4,0.1l0.1,6.8h1.5l-0.1,1.4l1.4,0.1v3.9h1.4l0.1,1.7l3,2.6h1.2v1.1l2.5,0.2v1.3h3l0.6,1.3
		h0.9l0.6-1.1l1.9-0.1l1,1.4h1.5v1.3h1.2v1.3h1.3v1.6l1.2,1.3h4.2l-0.1-1.3h3.1l1.2,1.3h1.7l-0.1,1.3l1.4,0.1v2.6h1.3l-0.1,1.7
		l12.3-0.3l0.1-2.8l4.1-0.2l0.1-2.4h2.6v1.1l5.7,0.1l-0.1,1.7l2.8-0.1l-0.1,0.9l1.1-0.1l1.6,1.7v1.3h1.5v1.6h1.5v1.1h2.6v1.7h1.8
		v1.1h2.7l0.5,1.4h1.9v1.5h4.1v1.3h1v1.4h6.2l1.2-1.1l-1.7-1.3v-3.6l-1.3,0.1v-3.7l-1.4-0.1v-1.8l-1.5-0.9l-0.1-1.8l1.7-1.1l1.3-0.1
		l-0.1-1.4h1.6l-0.1-1.7l1.4-0.1l0.2-3.4l2.8,0.1v-1.7l1-0.1v-2.6l1.7,0.1l1.1-1.4l1.5-0.1v-1.4l2.8,0.1l1.2-1.1l1.7-1.5v-1.3
		l1.3-0.1l-0.2-1.4l1-1.4l2,0.1v-1.2h1.1l1-2h1.5v-0.9l1.7,0.1c0,0,1-1.4,1.1-1.4c0.6,0,1.1,0,1.7,0.1v-1.5l1.4-0.1l-0.3-4l-1.4-0.1
		l0.2-16.4h-1.7l0.1-1.6l-2.5,0.2l-0.1-2.8h1.5l0.1-4l-2.9-0.1v-1.4l1.4,0.1l1.3-1.3v-1.7l1.5-0.1l-0.3-1.1l1.7-0.1l-0.1-1.8h1.9
		l1.2-1v-3.6C353,75.6,331.8,45.3,303.9,33.4z"/>
	<path class="st0" d="M215.3,255.2v-4.4h1.6v-1.5h1.3V248h1.5v-2.7h1.3v-1.3h1.4l1.4-1.5h1.3v-1.7h1.5v-1.1h1.3v-1.3h0.8v-1.5h0.8
		v1.3h1.5v2.8L228,241l-2.8,2.6v4l-1.5,0.2l-1.3,1.2l0.1,6.1h2.5v1h2.9v2.2C228,258.3,219.2,256.5,215.3,255.2z"/>
	<path class="st0" d="M237.4,259.8v-1h1.5v-1.4h2.9c0.1-0.5,0.1-1,0-1.4h3.6v-1h-1.1l-0.1-3h1.4v-2.5h1.4v-1.4h8.1v-1.1h1.4v-1.7
		h1.4v-2.8h2.7l-0.2-1.4h3v-1.5h8.3v-1.1h2.6V237h2.8v-1.3h6.6v1.6l4.2-0.1v2.4h1.5v3.2l2.6-0.2V241l1.7-0.1v-2.6l1.2,0.3v-1.7h3
		v-1.6h2.4V234h5.7l-0.2-1.4h4.1v-1.4h8.2v-1h1.6V229h2.8v1.5l0.8,0.9l0.5-1.3h2.8v-1.1h1.5v-1.7h1.1v-1h1.5v5.4"/>
	<polyline class="st0" points="349.6,211.7 348.5,213.2 348.4,211.6 348.4,208 350,208 350.1,202.7 348.6,202.7 348.4,201.4 
		347.2,201.4 347.1,199.9 345.8,199.9 345.8,198.6 344.4,198.6 344.4,196 342.8,196 342.8,194.4 344.6,194.4 344.6,191.5 
		345.8,191.5 345.8,188.9 347.5,188.9 347.4,184.9 344.7,185 344.7,186.6 343.5,186.6 343.6,188.1 342.3,188.1 342.3,185.4 
		343.2,185.4 343.2,183.5 344.4,183.4 344.4,180.8 345.9,180.8 345.9,174 347.1,174 347,168.4 348.5,168.4 348.6,165.6 349.9,165.6 
		349.9,158.8 351.3,158.8 351.3,154.6 352.7,154.6 352.7,151.9 354,151.9 354,149.1 351.1,149.1 351.2,147.7 351.2,146.5 
		349.7,146.5 349.7,145 347,145 347,143.9 345.7,143.9 345.8,142.2 348.4,142.2 348.4,140.9 351.4,140.9 351.3,139.5 353.9,139.6 
		353.9,138.2 355.4,138.2 355.4,139.9 356.9,139.7 356.9,141.2 358,142.4 358.1,144 359.6,143.9 360.8,142.5 360.9,141.2 
		363.5,141.2 365.1,142.3 365.1,145.4 369.1,145.4 369.1,143.8 370.5,143.8 370.5,145.3 371.9,145.2 371.9,144.1 373.1,144.1 	"/>
	<path class="st0" d="M452.8,174.8c0,0-0.7-17.4-5.2-22.2c0,0-8.9-8.3-14.9-8.6c0,0,1.8,2.6,1.8,7.3c0,0-8.1-28.2-21-30.5
		c0,0-8.9-1.3-14.3,9.5c0,0-7.3,38.8,21.2,50.4l-10-4.8c0,0-0.2,6.8,2.6,11.1c0,0-4.3,0.8-6.5,6"/>
	<path class="st0" d="M428.8,174.8c0,0-11.6-6.6-14.4-11.3c0,0-6.1-22.4-8-36.3"/>
	<path class="st1" d="M422,191.6c-2.6,0.5-5.2-0.1-7.4-1.5"/>
	<path class="st1" d="M422,196.3c-3.2,0.7-6.6,0.3-9.5-1.3"/>
	<path class="st0" d="M455.5,186.9c0,0-11.9-19.1-23.8,0v6.3c1.1,5.2,5.6,9.1,10.9,9.6c5.8,0.5,11.5-3.6,13-9.6L455.5,186.9
		L455.5,186.9z"/>
	<path class="st0" d="M457.5,199.3c-0.2,0.5-0.4,1-0.7,1.5c-2.6,4.3-13.6,15.1-54.2-1.5l-2.5,20.9c0,0,29.3,23.1,55.5,6.5l1.8-26.8"
		/>
	<path class="st0" d="M468.3,285.6l-4.5-12.2l4.5-18.2l-12.7-26.6c0,0-23.1,18.6-55.5-6.2l-1.7,7.5c0,0,25,20.6,59.1,8.5"/>
	<path class="st0" d="M454.6,249.2l1.5,9.7"/>
	<path class="st0" d="M450,249.2l0.9,9.6"/>
	<polyline class="st0" points="420.7,244.1 417.9,256.4 401,255.2 391.9,264.9 	"/>
	<path class="st0" d="M492.6,322.9c0,0-6.8,28.1-25,17.5c0,0,28-16.2,9.3-44c0,0,7.6,31-13.4,42.4c0,0-28.8-13.9-37.3-22.5
		c0,0-17.8-13.9-34.3-36.4c0,0,1.4-28.9,31.6-16.2c0,0,29.1,23.1,53,31.8"/>
	<path class="st0" d="M476.5,289.9c0,0,20.6,8.6,16.2,33"/>
	<path class="st0" d="M439.9,283.1l-25.7-17.5c0,0-11.8,0.9-19.4,18.2"/>
	<path class="st0" d="M444.5,278.7c0,0,2.2,31.5-21.4,35"/>
	<path class="st0" d="M452,283.5c0,0,5.2,29.7-22.8,35.5"/>
	<path class="st0" d="M440.5,300.5l-12.7-9.9h-6.1v6.1l14.4,10.3"/>
	<path class="st0" d="M478.1,304.4l-10.3-5.9l-4.8,3.2c-3.7-2.1-7.5-4.2-11.2-6.4"/>
	<polyline class="st0" points="478.3,308.4 467.9,303.1 462.3,306.5 450.9,299.5 	"/>
	<polyline class="st0" points="420.7,320.2 411.8,330.8 394.7,334.8 	"/>
	<path class="st0" d="M469.6,341.5c0,0-0.1,0.5-7.7-3.4"/>
	<line class="st0" x1="424.3" y1="245" x2="424.4" y2="264.5"/>
	<path class="st0" d="M450.6,186.5c0,0-6.7-8.7-15.1,0v7.6c0,0,6.9,10.3,15.1-0.4V186.5z"/>
	<path class="st0" d="M448,184.2l-2.4,6.8c-0.7,1.8-2.2,2.6-3,2.4c-0.8-0.3-1.4-2-0.6-3.9c0.9-2.2,1.7-4.5,2.6-6.7"/>
	<path class="st0" d="M451.9,337.3l-10.3,22.9l-33.8,20.5l-2.6,1.6l-13.2,8l-57.2-31.5l-33.5-41.4c0,0-4.1-28.8,33.2-20.1
		c0,0,24.5,15.1,31.2,27.3l18.5,10.1l2.8,1.5c14.4,10,22.4,26.9,20.9,44.4"/>
	<path class="st0" d="M398.4,386.4c0,0,5-34.4-11.6-50.1c0,0,12.8,17.9,2.9,52.9"/>
	<path class="st0" d="M377.7,387.1c0,0-13.4,7.2-38.8,4.5c0,0-19.9-9.7-42.5-44.8c0,0-11.5-35.8-14.2-50.5c0,0,4-22.6,26.9-4"/>
	<path class="st0" d="M328.4,390.4c0,0-2,1.4-31.8,1.8l-28.1-32.7l2-55c0,0,6.6-3.3,15.5,7.6"/>
	<path class="st0" d="M384.9,252.8c-2.6-1.9-7.2,0-10.8,2c-1.6,0.9-3.2,1.9-4.6,3c-9.8,7.2-14,17.9-15.9,25.7
		c-0.3,1.4-0.6,2.7-0.8,3.8c0.1,1,0.6,3.4,2.4,4.8c0.8,0.6,2.6,1.5,7.3,0.2c10.5-2.9,16.9-11.8,18.6-14.4c1.1-1.6,2-3.3,2.8-5
		C386.9,266.3,388.9,255.6,384.9,252.8z"/>
	<line class="st0" x1="354.2" y1="281.2" x2="336.8" y2="298.9"/>
	<polyline class="st0" points="398.4,229.8 397.3,235.6 383.4,252 	"/>
	<path class="st0" d="M395.6,284.9l-9.2,5.9l0,0l-8.7-8.5"/>
	<polyline class="st0" points="371.4,288 379.9,299.9 374.2,312.4 376.5,319 370.7,327.5 	"/>
	<polyline class="st0" points="365.6,291.2 370,301.2 359.6,316.9 	"/>
	<path class="st0" d="M349.4,324.1l-20.9-20.1c0,0-14.7-0.1-17.9,1.9l-3.2,10.9"/>
	<path class="st0" d="M364.8,323.3c0,0,2.8,9.3-26.1,33.1"/>
	<path class="st0" d="M359.6,322.1c0,0-4,17.4-25.1,30.8"/>
	<polyline class="st0" points="357.2,338.5 372.2,347 378.9,345 391.9,353 378.9,341.5 374.2,343.1 360.1,334.8 	"/>
	<polyline class="st0" points="345.5,344.3 344.2,339.9 331.7,326.4 326,326.4 326,331.1 337.7,344.3 344.3,345.5 	"/>
	<path class="st0" d="M351.8,368.2c0,0-7.9,15.2-25.8,13.9"/>
	<path class="st0" d="M355.3,373.6c0,0-7.7,13.2-25.4,11.9"/>
	<line class="st0" x1="288.1" y1="362.7" x2="282.2" y2="356.5"/>
	<line class="st0" x1="285.2" y1="365.2" x2="280.2" y2="359.6"/>
	<path class="st0" d="M314.1,353l-6.2-6.5"/>
	<line class="st0" x1="310.9" y1="355.2" x2="304.8" y2="348"/>
	<path class="st0" d="M289.6,346.5c0,0-17.9-0.7-21.2,6.5"/>
	<path class="st0" d="M291.9,349.8c0,0-18.6-1.5-23.4,9.7"/>
	<path class="st0" d="M318.4,338.5c0,0-15.6,2-19.3,12.3"/>
	<path class="st0" d="M315.3,334.8c0,0-14.6-0.7-19.4,10.6"/>
	<path class="st0" d="M301.1,338.5c-9.7-20.9-2.1-19.6-2.1-19.6c5.7,1.3,8.3,15.9,8.3,15.9"/>
	<path class="st0" d="M280.2,347.1l-1.1-14c0,0-2.9-4.8-6.4,0l1,15.6"/>
	<path class="st0" d="M375.3,254.8c14.8,0.7,2.4,19.9,2.4,19.9s-12,19-24.4,10.3"/>
	<path class="st0" d="M373.5,274.7c0,0,12.7-26.6-7-5C366.5,269.7,350.9,293.6,373.5,274.7z"/>
</g>
</svg>
